<svg fill="#51A7F9" xmlns="http://www.w3.org/2000/svg" xmlns:xlink="http://www.w3.org/1999/xlink" version="1.1" x="0px" y="0px" viewBox="0 0 100 100" enable-background="new 0 0 100 100" xml:space="preserve"><path d="M88.401,76.18c-0.27-0.88-1.17-1.6-2.09-1.66l-1.56-0.119c-0.2-0.011-0.46-0.23-0.5-0.42l-0.88-3.681  c-0.02-0.1,0.05-0.21,0.15-0.24l0.09-0.02c0.94-0.25,1.64-1.21,1.59-2.18l-0.25-4.681c-0.04-0.81-0.54-1.8-1.16-2.31l-5.2-4.34  c-0.59-0.49-1.61-0.86-2.38-0.86h-1.83l1.64-4.35c0.32-0.85,0.07-1.98-0.58-2.61l-5.15-5.01c-0.33-0.33-0.76-0.5-1.19-0.5  c-0.58,0-1.11,0.3-1.43,0.82l-0.41,0.66c-0.02,0.02-0.05,0.05-0.1,0.01l-3.41-2.67c-0.33-0.26-0.71-0.39-1.12-0.39  c-0.61,0-1.17,0.3-1.51,0.82l-4.13,6.25c-0.09,0.12-0.28,0.17-0.34,0.14c-0.24-0.11-0.5-0.17-0.77-0.17c-0.71,0-1.38,0.42-1.7,1.08  l-2.08,4.29c-0.06,0.12-0.26,0.2-0.38,0.16l-2.29-0.8c-0.2-0.07-0.42-0.101-0.64-0.101c-0.78,0-1.51,0.44-1.85,1.12l-5.97,11.94  c-0.14,0.279-0.59,0.64-0.89,0.71l-9.95,2.35c-0.12,0.03-0.29,0.05-0.47,0.05c-0.36,0-0.75-0.069-0.98-0.16l-4.97-2.01  c-0.3-0.13-0.67-0.189-1.05-0.189c-0.58,0-1.15,0.149-1.57,0.409L5.471,77.15c-0.82,0.5-0.77,1.109-0.71,1.35  c0.06,0.23,0.31,0.79,1.26,0.84l40.75,2.13c0.5,0.03,1.3,0.05,1.89,0.05l39.06-0.42c0.55-0.01,1.03-0.25,1.33-0.649  c0.3-0.41,0.38-0.95,0.22-1.47L88.401,76.18z"></path><path d="M94.531,60.49c-0.25-0.38-0.69-0.61-1.2-0.61c-0.08,0-0.16,0.01-0.25,0.021l-1.54,0.21c-0.88,0.12-1.77,0.84-2.07,1.67  l-3.01,8.37c-0.18,0.51-0.13,1.04,0.14,1.47c0.27,0.42,0.73,0.7,1.27,0.75l0.23,0.02c0.06,0,0.13,0.011,0.19,0.011  c0.88,0,1.78-0.57,2.14-1.36l4.14-9.12C94.801,61.41,94.791,60.89,94.531,60.49z"></path></svg>