<svg fill="#51A7F9" xmlns="http://www.w3.org/2000/svg" viewBox="0 0 200 200" x="0px" y="0px"><title>alt</title><path d="M200.33,4.33a4,4,0,0,0-4-4H4.33a4,4,0,0,0-4,4v192a4,4,0,0,0,4,4h192a4,4,0,0,0,4-4V4.33Zm-8,4v18H8.33v-18h184Zm-184,184v-158h184v158H8.33Z"></path><circle cx="21.46" cy="17.05" r="4.34"></circle><circle cx="34.94" cy="17.05" r="4.34"></circle><circle cx="48.42" cy="17.05" r="4.34"></circle><path d="M92.66,142H30.35a4,4,0,1,1,0-8H92.66A4,4,0,0,1,92.66,142Z"></path><path d="M134.54,162.16H30.35a4,4,0,0,1,0-8h104.2A4,4,0,0,1,134.54,162.16Z"></path><path d="M124.33,182.34h-94a4,4,0,1,1,0-8h94A4,4,0,0,1,124.33,182.34Z"></path><path d="M159.76,42.19a14.31,14.31,0,0,0-12.39,21.52L122.3,88.79a14.23,14.23,0,0,0-13.83-.31L94.12,74.13a14.34,14.34,0,1,0-25.39,0L46.88,96a14.4,14.4,0,1,0,5.77,5.54L74.28,79.89a14.22,14.22,0,0,0,14.3,0L102.7,94a14.33,14.33,0,1,0,25.12.55l25.33-25.33A14.33,14.33,0,1,0,159.76,42.19ZM40.24,115a6.34,6.34,0,1,1,6.34-6.34A6.34,6.34,0,0,1,40.24,115ZM81.43,73.82a6.34,6.34,0,1,1,6.34-6.34A6.34,6.34,0,0,1,81.43,73.82Zm33.68,33.68a6.34,6.34,0,1,1,6.34-6.34A6.34,6.34,0,0,1,115.11,107.51Zm44.64-44.64a6.34,6.34,0,1,1,6.34-6.34A6.34,6.34,0,0,1,159.76,62.87Z"></path></svg>